<svg xmlns="http://www.w3.org/2000/svg" xmlns:xlink="http://www.w3.org/1999/xlink" width="960" zoomAndPan="magnify" viewBox="0 0 720 809.999993" height="1080" preserveAspectRatio="xMidYMid meet" version="1.0"><defs><clipPath id="50760bb040"><path d="M 4 0 L 716 0 L 716 809.25 L 4 809.25 Z M 4 0 " clip-rule="nonzero"/></clipPath></defs><g clip-path="url(#50760bb040)"><path fill="#046031" d="M 715.78125 70.804688 C 715.78125 67.171875 712.152344 58.09375 710.335938 57.1875 L 712.152344 57.1875 C 379.414062 -73.074219 4.003906 59.457031 4.003906 59.457031 L 4.003906 368.089844 C 4.003906 388.058594 6.726562 408.027344 10.8125 427.546875 C 30.785156 520.589844 77.542969 598.65625 143.816406 665.828125 C 204.644531 727.554688 276.367188 772.941406 354.898438 808.34375 C 358.078125 809.703125 362.617188 809.25 365.792969 807.433594 C 395.300781 792.003906 425.714844 777.933594 453.859375 760.6875 C 545.554688 705.3125 620 633.148438 669.027344 536.472656 C 698.984375 477.472656 716.691406 415.289062 715.328125 348.117188 C 713.964844 255.527344 715.328125 162.9375 715.328125 70.351562 L 715.78125 70.351562 Z M 715.78125 70.804688 " fill-opacity="1" fill-rule="nonzero"/></g><path fill="#ffffff" d="M 145.632812 262.335938 L 145.632812 201.0625 L 134.738281 201.0625 L 134.738281 185.179688 L 161.523438 185.179688 L 161.523438 262.335938 Z M 145.632812 262.335938 " fill-opacity="1" fill-rule="nonzero"/><path fill="#ffffff" d="M 225.980469 195.617188 L 225.980469 252.351562 L 215.996094 262.335938 L 185.125 262.335938 L 175.140625 252.351562 L 175.140625 238.734375 L 191.027344 238.734375 L 191.027344 246.453125 L 210.546875 246.453125 L 210.546875 231.925781 L 185.125 231.925781 L 175.140625 221.941406 L 175.140625 195.617188 L 185.125 185.632812 L 215.996094 185.632812 Z M 190.574219 201.519531 L 190.574219 216.042969 L 210.09375 216.042969 L 210.09375 201.519531 Z M 190.574219 201.519531 " fill-opacity="1" fill-rule="nonzero"/><path fill="#ffffff" d="M 472.46875 262.335938 L 503.792969 201.0625 L 473.832031 201.0625 L 473.832031 185.179688 L 521.042969 185.179688 L 521.042969 201.0625 L 489.71875 262.335938 Z M 472.46875 262.335938 " fill-opacity="1" fill-rule="nonzero"/><path fill="#ffffff" d="M 544.191406 262.335938 L 534.207031 252.351562 L 534.207031 229.203125 L 539.652344 223.757812 L 534.207031 218.3125 L 534.207031 195.164062 L 544.191406 185.179688 L 575.0625 185.179688 L 585.046875 195.164062 L 585.046875 218.3125 L 579.601562 223.757812 L 585.046875 229.203125 L 585.046875 252.351562 L 575.0625 262.335938 Z M 569.613281 216.042969 L 569.613281 201.519531 L 550.09375 201.519531 L 550.09375 216.042969 Z M 569.613281 246.453125 L 569.613281 231.925781 L 550.09375 231.925781 L 550.09375 246.453125 Z M 569.613281 246.453125 " fill-opacity="1" fill-rule="nonzero"/><path fill="#ffffff" d="M 271.828125 561.890625 C 279.09375 553.265625 286.808594 544.644531 294.070312 536.019531 C 299.066406 541.464844 298.613281 550.542969 292.710938 556.445312 C 283.175781 565.976562 271.828125 572.328125 259.117188 575.507812 C 256.394531 576.414062 253.21875 576.867188 250.039062 577.324219 C 250.949219 569.605469 252.761719 562.34375 255.941406 555.992188 C 259.574219 547.820312 264.566406 540.558594 270.921875 534.203125 C 275.460938 529.667969 281.363281 528.304688 286.355469 530.574219 " fill-opacity="1" fill-rule="nonzero"/><path fill="#ffffff" d="M 184.21875 490.632812 C 196.929688 494.265625 209.640625 498.347656 222.347656 501.980469 C 219.625 506.972656 215.996094 509.695312 211 510.148438 C 191.9375 511.511719 172.871094 498.347656 167.875 479.742188 C 183.3125 475.203125 198.289062 475.203125 213.269531 479.742188 C 219.171875 481.554688 222.804688 485.640625 224.164062 492.449219 " fill-opacity="1" fill-rule="nonzero"/><path fill="#ffffff" d="M 185.582031 390.328125 C 189.210938 401.222656 192.84375 411.660156 196.476562 422.554688 C 190.574219 422.554688 186.035156 420.738281 182.855469 416.199219 C 175.140625 404.851562 173.777344 392.597656 177.863281 379.890625 C 179.226562 375.804688 181.042969 371.71875 182.855469 367.632812 C 198.289062 376.257812 210.09375 388.511719 210.09375 408.9375 C 210.09375 429.359375 208.730469 415.746094 205.554688 418.46875 " fill-opacity="1" fill-rule="nonzero"/><path fill="#ffffff" d="M 220.078125 343.125 C 215.996094 353.109375 211.910156 363.097656 207.824219 373.082031 C 204.644531 369.449219 204.644531 365.820312 205.101562 362.1875 C 206.007812 345.847656 218.71875 330.417969 234.605469 326.785156 L 235.96875 326.785156 C 241.414062 344.035156 239.597656 359.464844 229.160156 373.988281 C 226.433594 377.621094 221.894531 379.433594 215.996094 378.527344 " fill-opacity="1" fill-rule="nonzero"/><path fill="#ffffff" d="M 261.386719 320.433594 C 257.304688 327.695312 253.671875 334.957031 249.585938 342.671875 C 247.769531 339.949219 247.769531 336.769531 248.222656 334.046875 C 250.039062 321.792969 261.386719 310.902344 274.097656 309.085938 L 275.007812 309.085938 C 277.730469 322.703125 275.007812 334.503906 265.929688 344.941406 C 263.65625 347.664062 260.027344 348.117188 255.488281 347.210938 " fill-opacity="1" fill-rule="nonzero"/><path fill="#ffffff" d="M 295.886719 317.253906 C 291.800781 321.792969 288.171875 326.332031 284.085938 331.324219 C 283.175781 329.054688 284.085938 326.785156 284.085938 324.972656 C 287.261719 316.347656 296.796875 310.445312 305.875 311.355469 L 306.78125 311.355469 C 306.78125 321.339844 303.152344 329.507812 294.980469 335.410156 C 292.710938 336.769531 290.441406 336.769531 287.261719 335.410156 " fill-opacity="1" fill-rule="nonzero"/><path fill="#ffffff" d="M 171.960938 440.253906 C 177.863281 448.878906 183.765625 457.046875 190.121094 465.671875 C 184.21875 467.941406 177.863281 465.671875 173.777344 461.132812 C 167.421875 453.417969 163.335938 444.339844 161.976562 434.351562 C 161.976562 429.816406 161.976562 424.820312 161.066406 419.828125 C 175.140625 423.914062 187.394531 430.269531 196.476562 441.160156 C 205.554688 452.054688 201.46875 454.324219 197.382812 459.769531 " fill-opacity="1" fill-rule="nonzero"/><path fill="#ffffff" d="M 219.625 534.660156 L 251.855469 534.660156 C 251.855469 539.199219 246.410156 544.191406 240.960938 544.191406 C 225.074219 545.097656 211 539.652344 197.835938 529.667969 C 205.554688 523.3125 213.726562 519.226562 222.804688 516.957031 C 228.25 515.597656 233.699219 515.140625 239.144531 515.140625 C 244.59375 515.140625 250.039062 519.226562 251.855469 524.671875 " fill-opacity="1" fill-rule="nonzero"/><path fill="#ffffff" d="M 417.996094 536.472656 C 413.003906 541.921875 413.457031 550.996094 419.359375 556.898438 C 428.890625 566.429688 440.242188 572.785156 452.949219 575.960938 C 455.675781 576.867188 458.851562 577.324219 462.03125 577.777344 C 461.121094 570.0625 459.304688 562.796875 456.128906 556.445312 C 452.496094 548.273438 447.503906 541.011719 441.148438 534.660156 C 434.792969 528.304688 430.707031 528.757812 425.714844 531.027344 C 432.976562 539.199219 439.785156 547.367188 447.050781 555.992188 " fill-opacity="1" fill-rule="nonzero"/><path fill="#ffffff" d="M 489.265625 502.433594 C 491.988281 507.425781 495.621094 510.148438 500.613281 510.605469 C 519.679688 511.964844 538.746094 498.804688 543.738281 480.195312 C 528.304688 475.65625 513.324219 475.65625 498.34375 480.195312 C 492.445312 482.011719 488.8125 486.09375 487.449219 492.902344 C 500.160156 489.273438 512.417969 485.640625 524.671875 482.011719 " fill-opacity="1" fill-rule="nonzero"/><path fill="#ffffff" d="M 515.59375 422.554688 C 521.496094 422.554688 526.035156 420.738281 529.210938 416.199219 C 536.929688 404.851562 538.292969 392.597656 534.207031 379.890625 C 532.84375 375.804688 531.027344 371.71875 529.210938 367.632812 C 513.777344 376.257812 501.976562 388.511719 501.976562 408.9375 C 501.976562 429.359375 503.339844 415.746094 506.515625 418.46875 C 510.148438 408.027344 513.324219 397.589844 516.957031 387.152344 " fill-opacity="1" fill-rule="nonzero"/><path fill="#ffffff" d="M 504.246094 373.535156 C 507.421875 369.902344 507.421875 366.273438 506.96875 362.640625 C 506.0625 346.304688 493.351562 330.871094 477.464844 327.238281 L 476.101562 327.238281 C 470.65625 344.488281 472.46875 359.917969 482.910156 374.441406 C 485.632812 378.074219 490.175781 379.890625 496.074219 378.980469 C 491.988281 368.542969 487.449219 357.648438 483.363281 347.210938 " fill-opacity="1" fill-rule="nonzero"/><path fill="#ffffff" d="M 462.484375 342.21875 C 464.300781 339.496094 464.300781 336.316406 463.84375 333.59375 C 462.03125 321.339844 450.679688 310.445312 437.972656 308.632812 L 437.0625 308.632812 C 434.339844 322.246094 437.0625 334.046875 446.140625 344.488281 C 448.410156 347.210938 452.042969 347.664062 456.582031 346.757812 C 452.496094 339.039062 448.410156 331.324219 443.871094 323.15625 " fill-opacity="1" fill-rule="nonzero"/><path fill="#ffffff" d="M 427.53125 331.324219 C 428.4375 329.054688 427.53125 326.785156 427.53125 324.972656 C 424.351562 316.347656 414.820312 310.445312 405.742188 311.355469 L 404.832031 311.355469 C 404.832031 321.339844 408.464844 329.507812 416.636719 335.410156 C 418.90625 336.769531 421.175781 336.769531 424.351562 335.410156 C 420.265625 330.417969 416.183594 325.425781 412.097656 320.433594 " fill-opacity="1" fill-rule="nonzero"/><path fill="#ffffff" d="M 521.949219 465.671875 C 527.851562 467.941406 534.207031 465.671875 538.292969 461.132812 C 544.648438 453.417969 548.730469 444.339844 550.09375 434.351562 C 550.09375 429.816406 550.09375 424.820312 551 419.828125 C 536.929688 423.914062 524.671875 430.269531 515.59375 441.160156 C 506.515625 452.054688 510.601562 454.324219 514.6875 459.769531 C 520.589844 451.601562 526.488281 443.429688 532.390625 434.808594 " fill-opacity="1" fill-rule="nonzero"/><path fill="#ffffff" d="M 459.761719 534.660156 C 459.761719 539.199219 465.207031 544.191406 470.65625 544.191406 C 486.542969 545.097656 500.613281 539.652344 513.777344 529.667969 C 506.0625 523.3125 497.890625 519.226562 488.8125 516.957031 C 483.363281 515.597656 477.917969 515.140625 472.46875 515.140625 C 467.023438 515.140625 461.574219 519.226562 459.761719 524.671875 L 492.445312 524.671875 " fill-opacity="1" fill-rule="nonzero"/><path fill="#ffffff" d="M 390.308594 411.660156 C 390.308594 409.84375 391.667969 408.027344 393.03125 406.667969 C 394.394531 405.304688 397.117188 403.945312 399.839844 403.492188 C 399.839844 405.757812 399.839844 407.574219 399.839844 409.84375 C 401.203125 427.089844 408.464844 441.160156 421.628906 452.960938 C 421.628906 452.960938 421.628906 452.960938 422.535156 452.960938 C 421.175781 452.960938 419.359375 452.054688 417.996094 451.148438 C 405.742188 446.152344 397.117188 437.984375 392.578125 425.277344 C 391.214844 422.097656 390.761719 418.921875 390.308594 415.289062 L 390.308594 410.753906 Z M 390.308594 411.660156 " fill-opacity="1" fill-rule="nonzero"/><path fill="#ffffff" d="M 423.445312 399.40625 C 423.445312 394.414062 427.078125 390.328125 431.617188 389.421875 C 436.609375 388.511719 441.601562 391.234375 443.417969 395.773438 C 444.324219 397.589844 443.417969 399.40625 443.417969 401.675781 C 443.417969 408.027344 442.511719 414.382812 441.601562 420.738281 C 440.695312 430.269531 439.332031 439.800781 437.0625 449.332031 C 437.0625 450.691406 436.15625 452.054688 435.703125 453.417969 C 435.703125 454.324219 434.339844 455.230469 433.429688 455.230469 C 432.523438 455.230469 431.160156 455.230469 431.160156 453.417969 C 430.253906 450.238281 429.347656 447.0625 428.890625 443.886719 C 427.53125 436.167969 426.621094 428.90625 425.714844 421.191406 C 424.808594 413.929688 424.351562 407.121094 423.445312 399.859375 Z M 423.445312 399.40625 " fill-opacity="1" fill-rule="nonzero"/><path fill="#ffffff" d="M 442.964844 448.421875 C 443.871094 444.339844 444.324219 440.253906 445.234375 436.167969 C 445.234375 431.628906 446.597656 427.546875 447.050781 423.007812 C 447.050781 418.921875 447.957031 414.835938 448.410156 411.207031 C 448.410156 407.121094 448.410156 403.492188 449.320312 399.40625 L 449.320312 394.867188 C 452.042969 393.960938 454.3125 393.960938 457.035156 394.867188 C 461.574219 396.226562 464.300781 400.765625 463.390625 405.304688 C 463.390625 409.390625 462.484375 413.476562 461.574219 417.558594 C 459.761719 427.546875 455.21875 436.167969 448.410156 443.886719 L 443.871094 448.421875 C 442.511719 449.785156 443.871094 448.421875 443.871094 448.421875 Z M 442.964844 448.421875 " fill-opacity="1" fill-rule="nonzero"/><path fill="#ffffff" d="M 424.804688 448.421875 C 423.445312 447.0625 421.628906 445.699219 420.265625 444.339844 C 413.003906 436.621094 408.464844 427.546875 406.195312 417.105469 C 406.195312 413.929688 405.289062 410.753906 404.832031 407.574219 L 404.832031 405.304688 C 403.925781 400.3125 407.558594 395.320312 413.003906 394.414062 C 415.273438 394.414062 417.089844 394.414062 419.359375 394.414062 L 419.359375 404.851562 C 419.359375 408.9375 420.265625 412.566406 420.265625 416.652344 C 420.265625 421.191406 421.175781 425.730469 422.082031 429.816406 C 422.992188 434.808594 423.898438 439.800781 424.804688 444.792969 C 424.804688 445.699219 424.804688 447.0625 424.804688 447.96875 Z M 424.804688 448.421875 " fill-opacity="1" fill-rule="nonzero"/><path fill="#ffffff" d="M 467.929688 403.492188 C 472.46875 403.492188 477.464844 407.574219 477.464844 413.023438 C 477.464844 425.277344 472.46875 435.261719 463.390625 443.429688 C 457.945312 448.421875 452.042969 451.601562 445.234375 453.414062 C 446.140625 452.507812 446.597656 452.054688 447.503906 451.601562 C 457.035156 442.976562 463.84375 432.085938 466.570312 419.375 C 467.476562 416.199219 467.476562 413.023438 467.929688 409.390625 C 467.929688 407.121094 467.929688 405.304688 468.839844 403.035156 Z M 467.929688 403.492188 " fill-opacity="1" fill-rule="nonzero"/><path fill="#ffffff" d="M 456.582031 454.324219 C 456.582031 456.59375 456.582031 458.410156 455.21875 460.679688 C 453.40625 463.855469 450.226562 466.125 446.140625 466.125 L 420.265625 466.125 C 411.640625 466.125 409.828125 461.132812 410.28125 455.230469 L 410.28125 454.324219 C 410.28125 454.324219 411.640625 454.324219 412.097656 455.230469 C 416.636719 457.5 422.082031 458.863281 427.078125 460.222656 C 427.984375 460.222656 429.347656 460.222656 430.253906 461.132812 C 432.070312 461.132812 433.429688 461.132812 435.246094 461.132812 C 439.785156 460.222656 444.324219 458.863281 448.410156 457.5 C 451.136719 456.59375 453.40625 455.683594 455.675781 454.324219 Z M 456.582031 454.324219 " fill-opacity="1" fill-rule="nonzero"/><path fill="#ffffff" d="M 323.125 392.597656 L 299.972656 392.597656 C 289.078125 392.597656 289.53125 405.304688 289.53125 405.304688 L 289.53125 410.753906 C 289.53125 416.199219 287.261719 419.828125 287.261719 419.828125 C 291.800781 454.777344 266.382812 467.941406 266.382812 467.941406 C 318.585938 472.480469 316.769531 432.085938 316.769531 432.085938 L 316.769531 407.574219 C 316.769531 396.683594 323.578125 398.496094 323.578125 398.496094 C 327.664062 395.320312 323.578125 393.050781 323.578125 393.050781 L 323.125 393.050781 Z M 302.695312 407.574219 C 301.335938 407.574219 299.972656 406.214844 299.972656 404.851562 C 299.972656 403.492188 301.335938 402.128906 302.695312 402.128906 C 304.058594 402.128906 305.421875 403.492188 305.421875 404.851562 C 305.421875 406.214844 304.058594 407.574219 302.695312 407.574219 Z M 302.695312 407.574219 " fill-opacity="1" fill-rule="nonzero"/><path fill="#ffffff" d="M 281.363281 419.828125 C 238.238281 424.367188 237.785156 462.039062 237.785156 462.039062 L 232.335938 462.039062 C 229.613281 462.039062 230.066406 462.949219 230.066406 462.949219 C 228.25 467.941406 234.152344 467.484375 234.152344 467.484375 L 251.402344 467.484375 C 289.078125 456.140625 281.363281 419.828125 281.363281 419.828125 Z M 281.363281 419.828125 " fill-opacity="1" fill-rule="nonzero"/><path stroke-linecap="butt" transform="matrix(4.539397, 0, 0, 4.538699, 4.004518, 0.00002)" fill="none" stroke-linejoin="miter" d="M 78.000138 114.499709 L 78.000138 80.799933 " stroke="#ffffff" stroke-width="1" stroke-opacity="1" stroke-miterlimit="10"/><path fill="#ffffff" d="M 432.523438 190.171875 C 431.617188 186.996094 428.890625 184.726562 425.261719 183.816406 C 421.628906 183.816406 417.996094 182.457031 413.910156 182 C 404.378906 180.1875 394.394531 178.824219 384.859375 177.007812 C 383.953125 177.007812 383.042969 177.007812 382.589844 175.648438 C 379.867188 170.203125 377.144531 164.753906 374.417969 159.308594 C 370.789062 152.5 367.609375 145.691406 363.980469 138.882812 C 362.164062 135.253906 358.53125 132.53125 353.992188 133.4375 C 350.816406 133.890625 348.542969 136.160156 347.183594 138.882812 C 341.28125 151.140625 334.925781 162.9375 328.570312 175.195312 C 328.570312 176.101562 327.210938 176.554688 326.300781 177.007812 C 322.214844 177.007812 318.128906 178.371094 314.5 178.824219 C 305.421875 180.1875 296.339844 182 287.261719 183.363281 C 284.539062 183.363281 281.816406 184.726562 280 187.449219 C 280 188.355469 279.09375 189.71875 278.636719 190.625 L 278.636719 194.710938 C 279.546875 196.980469 281.363281 198.796875 282.722656 200.609375 C 291.800781 209.6875 300.882812 219.21875 309.960938 228.296875 C 309.960938 228.296875 310.867188 229.203125 310.867188 230.113281 C 310.867188 231.472656 310.867188 232.835938 310.867188 234.195312 C 309.960938 240.550781 309.050781 246.90625 308.144531 252.804688 C 307.234375 258.253906 306.328125 264.152344 305.421875 269.597656 C 305.421875 272.777344 305.421875 275.953125 307.234375 278.675781 C 310.414062 282.308594 314.5 283.214844 319.039062 280.945312 C 331.296875 274.589844 343.097656 268.691406 355.355469 262.335938 L 357.625 262.335938 C 369.425781 268.691406 381.683594 274.589844 393.484375 280.492188 C 394.847656 280.492188 396.207031 281.398438 397.570312 281.851562 C 403.472656 282.761719 408.464844 277.316406 407.558594 271.414062 C 406.648438 265.96875 405.742188 260.519531 404.832031 254.621094 C 403.472656 246.90625 402.5625 239.191406 401.203125 231.472656 C 401.203125 229.660156 401.203125 228.296875 402.5625 226.933594 C 405.742188 224.210938 408.464844 221.035156 411.1875 218.3125 C 417.542969 211.957031 423.898438 205.148438 430.707031 198.796875 C 433.429688 196.070312 434.339844 192.894531 432.976562 189.265625 L 432.976562 190.171875 Z M 372.148438 195.164062 C 372.148438 195.164062 372.148438 196.070312 371.242188 196.070312 L 365.792969 196.070312 L 371.695312 196.070312 Z M 369.425781 189.71875 C 368.519531 190.625 367.15625 191.078125 366.25 191.53125 C 366.25 191.53125 365.339844 191.53125 365.339844 191.53125 C 366.25 191.53125 367.609375 190.625 368.519531 190.171875 L 369.425781 190.171875 Z M 362.617188 186.996094 C 363.980469 185.632812 364.886719 184.726562 366.25 183.363281 L 367.15625 183.363281 L 367.15625 184.269531 C 365.792969 185.632812 364.886719 186.539062 363.523438 187.902344 L 363.523438 186.996094 Z M 359.894531 182.457031 L 359.894531 181.546875 C 359.894531 181.09375 359.894531 181.546875 359.894531 181.546875 C 359.894531 183.363281 358.984375 184.269531 358.53125 185.632812 C 358.53125 185.632812 357.625 185.632812 358.53125 184.726562 C 358.53125 183.816406 359.4375 182.910156 359.4375 182 L 359.894531 182 Z M 354.898438 178.371094 L 354.898438 184.269531 Z M 349.453125 181.09375 L 349.453125 182 C 349.453125 182.910156 350.359375 183.816406 350.359375 184.726562 L 350.359375 183.816406 C 350.359375 182.910156 350.359375 182.457031 349.453125 181.546875 L 349.453125 180.640625 Z M 343.097656 183.363281 L 344.003906 183.363281 C 345.367188 184.726562 346.273438 185.632812 347.636719 186.996094 C 346.273438 186.085938 345.367188 185.179688 344.003906 183.816406 L 344.003906 182.910156 L 343.097656 182.910156 Z M 341.734375 189.265625 C 342.644531 189.265625 344.003906 190.171875 344.914062 190.625 C 344.003906 190.625 342.644531 189.71875 341.734375 189.265625 C 341.734375 189.265625 341.734375 189.265625 341.734375 188.355469 C 341.734375 187.449219 341.734375 188.355469 342.644531 188.355469 Z M 338.558594 195.164062 L 343.550781 195.164062 C 343.550781 196.070312 343.550781 195.164062 343.550781 195.164062 Z M 374.417969 209.234375 C 374.417969 210.140625 374.417969 210.59375 373.058594 210.59375 L 360.800781 210.59375 L 360.800781 237.828125 C 360.800781 238.734375 360.800781 239.1875 359.4375 239.1875 L 351.722656 239.1875 C 350.816406 239.1875 350.359375 239.1875 350.359375 237.828125 L 350.359375 210.59375 L 338.105469 210.59375 C 337.195312 210.59375 336.742188 210.59375 336.742188 209.234375 L 336.742188 201.0625 C 336.742188 200.15625 336.742188 199.703125 338.105469 199.703125 L 350.359375 199.703125 L 350.359375 189.71875 C 350.359375 188.808594 350.359375 188.355469 351.722656 188.355469 L 359.894531 188.355469 C 360.800781 188.355469 361.253906 188.355469 361.253906 189.71875 L 361.253906 198.796875 L 372.605469 198.796875 C 373.511719 198.796875 373.964844 198.796875 373.964844 200.15625 L 373.964844 208.78125 Z M 374.417969 209.234375 " fill-opacity="1" fill-rule="nonzero"/><path fill="#ffffff" d="M 76.179688 511.964844 C 71.1875 511.058594 68.011719 507.878906 65.742188 503.796875 C 61.65625 496.078125 64.378906 486.09375 72.550781 482.011719 C 80.71875 477.472656 90.707031 480.195312 94.792969 487.910156 C 96.152344 490.632812 97.0625 493.355469 96.609375 497.441406 L 88.890625 500.164062 C 89.800781 497.441406 88.890625 494.71875 87.984375 492.902344 C 86.167969 489.273438 81.628906 487.003906 77.089844 489.726562 C 72.09375 492.449219 72.09375 496.988281 73.910156 500.617188 C 75.726562 503.796875 79.359375 506.519531 82.988281 506.519531 Z M 76.179688 511.964844 " fill-opacity="1" fill-rule="nonzero"/><path fill="#ffffff" d="M 127.929688 540.558594 L 100.695312 559.621094 L 95.699219 552.359375 L 106.59375 544.644531 L 102.054688 538.289062 L 91.160156 546.003906 L 86.167969 538.742188 L 113.402344 519.679688 L 118.398438 526.941406 L 107.957031 534.203125 L 112.496094 540.558594 L 122.9375 533.296875 Z M 127.929688 540.558594 " fill-opacity="1" fill-rule="nonzero"/><path fill="#ffffff" d="M 134.285156 600.46875 L 135.648438 597.292969 L 127.023438 587.308594 L 123.84375 588.214844 L 117.488281 580.953125 L 152.898438 571.421875 L 155.167969 574.144531 L 140.1875 606.824219 L 134.285156 599.5625 Z M 138.824219 590.9375 L 142.457031 583.222656 L 134.285156 585.492188 Z M 138.824219 590.9375 " fill-opacity="1" fill-rule="nonzero"/><path fill="#ffffff" d="M 200.558594 620.441406 L 177.863281 644.496094 L 175.140625 642.226562 L 175.140625 624.070312 L 166.0625 633.601562 L 159.707031 627.703125 L 182.402344 603.648438 L 185.125 605.917969 L 184.21875 624.980469 L 194.207031 614.539062 Z M 200.558594 620.441406 " fill-opacity="1" fill-rule="nonzero"/><path fill="#ffffff" d="M 233.699219 667.1875 L 221.894531 681.710938 L 219.171875 679.441406 L 219.171875 675.359375 C 215.996094 675.359375 212.816406 674.449219 210.546875 672.636719 C 204.644531 668.097656 202.375 658.566406 209.183594 650.394531 C 215.085938 643.132812 225.074219 641.773438 232.335938 647.671875 C 234.605469 649.488281 236.421875 651.757812 237.328125 655.386719 L 230.972656 660.835938 C 230.972656 658.109375 229.160156 655.84375 227.34375 654.480469 C 224.164062 651.757812 219.171875 651.757812 215.996094 655.84375 C 211.910156 660.835938 212.816406 665.375 215.996094 667.1875 C 218.265625 669.003906 221.894531 669.003906 224.164062 666.28125 L 227.796875 661.742188 L 234.605469 667.1875 Z M 233.699219 667.1875 " fill-opacity="1" fill-rule="nonzero"/><path fill="#ffffff" d="M 262.296875 710.304688 L 245.046875 698.960938 L 263.65625 671.726562 L 280.90625 683.074219 L 276.824219 689.429688 L 266.835938 682.621094 L 263.65625 687.160156 L 270.921875 692.152344 L 267.289062 697.597656 L 260.027344 692.605469 L 256.847656 697.597656 L 266.835938 704.40625 L 262.75 710.761719 Z M 262.296875 710.304688 " fill-opacity="1" fill-rule="nonzero"/><path fill="#ffffff" d="M 473.378906 688.972656 C 475.648438 693.058594 475.195312 698.960938 468.839844 702.136719 L 455.675781 709.398438 L 439.785156 680.351562 L 453.40625 673.089844 C 458.398438 670.367188 463.390625 672.636719 465.660156 676.265625 C 467.023438 678.535156 467.023438 681.257812 465.660156 683.527344 C 468.839844 683.980469 471.109375 686.25 472.46875 688.519531 L 472.925781 688.519531 Z M 466.570312 691.699219 C 465.660156 690.335938 463.84375 689.429688 461.574219 690.789062 L 458.851562 686.25 C 461.121094 684.890625 461.121094 683.074219 460.667969 681.710938 C 459.761719 680.351562 457.945312 679.441406 456.128906 680.351562 L 451.589844 683.074219 L 460.214844 698.960938 L 464.753906 696.691406 C 467.023438 695.328125 467.476562 693.511719 466.570312 692.152344 Z M 466.570312 691.699219 " fill-opacity="1" fill-rule="nonzero"/><path fill="#ffffff" d="M 520.132812 665.375 L 502.882812 676.71875 L 484.273438 649.488281 L 501.523438 638.140625 L 505.609375 644.496094 L 495.621094 651.304688 L 498.796875 655.84375 L 506.515625 650.847656 L 510.148438 656.296875 L 502.429688 661.289062 L 505.609375 666.28125 L 515.59375 659.472656 L 519.679688 665.828125 Z M 520.132812 665.375 " fill-opacity="1" fill-rule="nonzero"/><path fill="#ffffff" d="M 549.1875 613.632812 L 560.988281 628.15625 L 558.265625 630.425781 L 554.632812 629.515625 C 554.632812 632.695312 552.816406 635.417969 550.09375 637.6875 C 544.648438 642.226562 534.660156 642.679688 527.851562 634.511719 C 521.949219 627.703125 522.859375 617.261719 529.667969 611.363281 C 531.9375 609.546875 534.207031 608.1875 538.292969 608.1875 L 542.378906 615.449219 C 539.652344 615.449219 537.382812 616.355469 535.113281 617.71875 C 531.9375 620.441406 530.574219 624.980469 534.207031 629.0625 C 538.292969 634.054688 542.832031 634.054688 545.101562 631.785156 C 547.371094 629.972656 547.824219 626.339844 545.101562 623.617188 L 541.46875 619.53125 L 548.277344 614.085938 Z M 549.1875 613.632812 " fill-opacity="1" fill-rule="nonzero"/><path fill="#ffffff" d="M 582.777344 605.460938 L 559.171875 582.316406 L 565.074219 575.960938 L 588.679688 599.109375 Z M 582.777344 605.460938 " fill-opacity="1" fill-rule="nonzero"/><path fill="#ffffff" d="M 597.304688 534.203125 L 623.632812 554.175781 L 621.363281 556.898438 L 603.203125 559.167969 L 613.644531 567.335938 L 608.652344 574.144531 L 582.324219 554.175781 L 584.59375 551.453125 L 603.660156 550.089844 L 591.855469 541.464844 L 596.851562 534.660156 L 597.304688 534.660156 Z M 597.304688 534.203125 " fill-opacity="1" fill-rule="nonzero"/><path fill="#ffffff" d="M 641.789062 501.980469 C 648.597656 505.609375 648.597656 511.511719 645.875 516.957031 C 643.152344 521.949219 638.160156 526.488281 634.527344 527.398438 L 627.71875 521.949219 C 632.257812 521.042969 636.796875 517.410156 638.160156 513.78125 C 639.066406 511.511719 639.066406 509.695312 638.160156 509.242188 C 633.617188 506.972656 628.625 521.949219 619.09375 516.957031 C 613.191406 514.234375 613.191406 507.878906 615.914062 502.433594 C 617.730469 499.257812 620.453125 496.078125 623.632812 494.265625 L 630.441406 499.257812 C 626.808594 500.617188 624.539062 502.433594 623.632812 504.703125 C 622.722656 506.972656 622.722656 508.789062 623.632812 509.242188 C 627.265625 511.058594 633.617188 497.441406 642.242188 501.980469 Z M 641.789062 501.980469 " fill-opacity="1" fill-rule="nonzero"/><path stroke-linecap="butt" transform="matrix(4.539397, 0, 0, 4.538699, 4.004518, 0.00002)" fill="none" stroke-linejoin="miter" d="M 133.500348 34.299648 C 133.500348 33.699772 132.899704 32.300348 132.700063 32.199651 L 133.000385 32.199651 C 114.599848 25.000279 95.300067 23.000119 78.099958 23.400323 C 47.399984 24.100035 23.400033 32.50002 23.400033 32.50002 L 23.400033 80.299893 C 23.400033 83.39997 23.800176 86.500046 24.399959 89.500287 C 27.500419 103.899892 34.700404 115.99983 44.999989 126.399975 C 54.400329 135.999712 78.900243 148.59969 79.400206 148.400018 C 83.999695 145.999653 88.699865 143.799821 93.099713 141.199785 C 107.300042 132.600128 118.800055 121.399574 126.400183 106.499929 C 131.100353 97.400232 133.699989 87.799634 133.600168 77.299653 C 133.399667 62.999883 133.600168 48.600278 133.600168 34.299648 Z M 133.500348 34.299648 " stroke="#ffffff" stroke-width="1" stroke-opacity="1" stroke-miterlimit="10"/><path fill="#ffffff" d="M 303.605469 47.65625 L 303.605469 80.789062 L 294.980469 80.789062 L 294.980469 67.171875 L 287.261719 67.171875 L 287.261719 80.789062 L 278.636719 80.789062 L 278.636719 47.65625 L 287.261719 47.65625 L 287.261719 60.363281 L 294.980469 60.363281 L 294.980469 47.65625 C 294.980469 47.65625 303.605469 47.65625 303.605469 47.65625 Z M 303.605469 47.65625 " fill-opacity="1" fill-rule="nonzero"/><path fill="#ffffff" d="M 347.636719 80.335938 L 327.210938 80.335938 L 327.210938 47.203125 L 347.636719 47.203125 L 347.636719 54.464844 L 335.835938 54.464844 L 335.835938 60.363281 L 344.914062 60.363281 L 344.914062 67.171875 L 335.835938 67.171875 L 335.835938 73.074219 L 347.636719 73.074219 Z M 347.636719 80.335938 " fill-opacity="1" fill-rule="nonzero"/><path fill="#ffffff" d="M 395.753906 80.335938 L 386.222656 80.335938 L 380.773438 67.625 L 380.773438 63.996094 L 382.589844 63.996094 C 384.859375 63.996094 385.769531 61.726562 385.769531 59.910156 C 385.769531 58.09375 384.40625 54.917969 381.683594 54.917969 L 378.957031 54.917969 L 378.957031 80.335938 L 370.332031 80.335938 L 370.332031 47.203125 L 383.5 47.203125 C 390.761719 47.203125 394.847656 53.101562 394.847656 59.003906 C 394.847656 64.902344 393.03125 66.71875 389.398438 68.535156 Z M 395.753906 80.335938 " fill-opacity="1" fill-rule="nonzero"/><path fill="#ffffff" d="M 438.425781 80.335938 L 417.996094 80.335938 L 417.996094 47.203125 L 438.425781 47.203125 L 438.425781 54.464844 L 426.621094 54.464844 L 426.621094 60.363281 L 435.703125 60.363281 L 435.703125 67.171875 L 426.621094 67.171875 L 426.621094 73.074219 L 438.425781 73.074219 Z M 438.425781 80.335938 " fill-opacity="1" fill-rule="nonzero"/></svg>